HIERARCHY
ROOT Hips
{
  OFFSET 13.6774 106.653 -34.4427
  CHANNELS 6 Xposition Yposition Zposition Zrotation Xrotation Yrotation
  JOINT ToSpine
  {
    OFFSET -2.69724 7.43032 -0.144315
    CHANNELS 3 Zrotation Xrotation Yrotation
    JOINT Spine
    {
      OFFSET -0.0310711 10.7595 1.96963
      CHANNELS 3 Zrotation Xrotation Yrotation
      JOINT Spine1
      {
        OFFSET 19.9056 3.91189 0.764692
        CHANNELS 3 Zrotation Xrotation Yrotation
        JOINT Neck
        {
          OFFSET 25.9749 7.03908 -0.130764
          CHANNELS 3 Zrotation Xrotation Yrotation
          JOINT Head
          {
            OFFSET 9.52751 0.295786 -0.907742
            CHANNELS 3 Zrotation Xrotation Yrotation
            End Site
            {
              OFFSET 16.4037 0.713936 2.7358
            }
          }
        }
        JOINT LeftShoulder
        {
          OFFSET 17.7449 4.33886 11.7777
          CHANNELS 3 Zrotation Xrotation Yrotation
          JOINT LeftArm
          {
            OFFSET 0.911315 1.27913 9.80584
            CHANNELS 3 Zrotation Xrotation Yrotation
            JOINT LeftForeArm
            {
              OFFSET 28.6126 1.18197 -3.53199
              CHANNELS 3 Zrotation Xrotation Yrotation
              JOINT LeftHand
              {
                OFFSET 27.5088 0.0218783 0.327423
                CHANNELS 3 Zrotation Xrotation Yrotation
                End Site
                {
                  OFFSET 18.6038 -0.000155887 0.382096
                }
              }
            }
          }
        }
        JOINT RightShoulder
        {
          OFFSET 17.1009 2.89543 -12.2328
          CHANNELS 3 Zrotation Xrotation Yrotation
          JOINT RightArm
          {
            OFFSET 1.4228 0.178766 -10.211
            CHANNELS 3 Zrotation Xrotation Yrotation
            JOINT RightForeArm
            {
              OFFSET 28.733 1.87905 2.64907
              CHANNELS 3 Zrotation Xrotation Yrotation
              JOINT RightHand
              {
                OFFSET 27.4588 0.290562 -0.101845
                CHANNELS 3 Zrotation Xrotation Yrotation
                End Site
                {
                  OFFSET 17.8396 -0.255518 -0.000602873
                }
              }
            }
          }
        }
      }
    }
  }
  JOINT LeftUpLeg
  {
    OFFSET -5.61296 -2.22332 -10.2353
    CHANNELS 3 Zrotation Xrotation Yrotation
    JOINT LeftLeg
    {
      OFFSET 2.56703 -44.7417 -7.93097
      CHANNELS 3 Zrotation Xrotation Yrotation
      JOINT LeftFoot
      {
        OFFSET 3.16933 -46.5642 -3.96578
        CHANNELS 3 Zrotation Xrotation Yrotation
        JOINT LeftToeBase
        {
          OFFSET 0.346054 -6.02161 12.8035
          CHANNELS 3 Zrotation Xrotation Yrotation
          End Site
          {
            OFFSET 0.134235 -1.35082 5.13018
          }
        }
      }
    }
  }
  JOINT RightUpLeg
  {
    OFFSET -5.7928 -1.72406 10.6446
    CHANNELS 3 Zrotation Xrotation Yrotation
    JOINT RightLeg
    {
      OFFSET -2.57161 -44.7178 -7.85259
      CHANNELS 3 Zrotation Xrotation Yrotation
      JOINT RightFoot
      {
        OFFSET -3.10148 -46.5936 -4.03391
        CHANNELS 3 Zrotation Xrotation Yrotation
        JOINT RightToeBase
        {
          OFFSET -0.0828122 -6.13587 12.8035
          CHANNELS 3 Zrotation Xrotation Yrotation
          End Site
          {
            OFFSET -0.131328 -1.35082 5.13018
          }
        }
      }
    }
  }
}
MOTION
Frames: 16
Frame Time: 0.03333333333333333
0.0000 93.1000 0.0000 -7.8582 -69.4020 -102.1264 -71.0077 -0.6761 88.0111 77.9067 65.1535 -0.6056 -2.3522 14.0706 8.5139 -151.3101 21.9059 176.9408 -155.4596 59.9370 173.7538 0.9864 -16.4792 -22.9325 -85.7722 52.3323 -129.6600 -12.1527 5.4454 -114.2404 -1.4879 -1.0486 0.0072 -0.5956 3.1025 25.4615 -76.0151 -40.0801 119.6623 3.8252 2.6490 126.0856 0.8267 1.0480 1.2406 -65.2516 7.0115 96.5806 -0.6337 29.1322 -7.7224 -2.0467 -7.2587 -1.0559 6.6600 -16.6002 13.6012 -27.5754 -0.3796 94.2505 1.7345 46.0491 1.9507 -6.4497 -11.9169 0.7310 0.8089 -2.4597 -3.8273 
0.0000 93.1000 0.0000 7.1067 -68.7152 -86.8580 -71.0040 -0.1004 88.0111 80.8062 65.0280 -2.6107 -2.3271 14.5040 7.5139 -149.3118 22.7393 175.9904 -154.4639 60.7236 173.6740 0.4510 -16.7754 -23.3742 -84.2443 49.8351 -130.5964 -11.3314 4.0553 -112.2846 -0.8255 -0.3084 -0.3087 -0.8482 3.9120 25.7826 -81.1668 -40.0531 120.0841 3.5950 2.6560 125.9886 0.1429 0.2897 0.4054 -63.6992 9.0755 97.9806 -1.2277 29.4136 -1.5963 -1.8902 -6.0590 -1.0687 5.3016 -13.4983 10.5550 -26.9294 -3.6840 91.1137 1.7570 45.8353 1.8049 -5.1214 -12.7480 1.1655 -0.0686 -2.0621 -4.6665 
0.0000 93.1000 0.0000 19.1255 -68.0833 -73.6883 -71.0033 -0.0947 88.0108 84.1183 65.1638 -5.0658 -2.2126 14.3160 6.7829 -148.3568 24.2863 177.4596 -157.3523 62.7276 176.4255 0.8390 -16.9716 -23.5280 -84.7830 47.0382 -129.6526 -8.9513 2.5918 -111.7136 -0.3979 -0.3244 -0.3024 -0.5194 4.2386 24.3053 -86.9203 -40.7798 119.0503 3.8360 2.8822 124.7450 0.2540 0.3621 0.5694 -62.7697 11.0975 98.0344 -1.5027 31.0983 1.5377 -1.8125 -3.8409 -1.1815 3.1546 -10.4761 7.3656 -27.6736 -6.2961 88.7898 1.7390 45.1289 0.8099 -4.8317 -13.1149 1.2803 0.1758 -2.0486 -5.7090 
0.0000 93.1000 0.0000 28.8303 -66.5057 -62.1954 -71.0033 0.2352 88.0097 84.7561 65.6705 -4.5732 -1.6668 13.7876 6.2466 -145.2211 25.2878 172.2895 -153.0366 63.9748 172.1792 0.5821 -16.6954 -22.3938 -82.1226 45.0460 -132.5440 -6.3500 0.8507 -108.3275 -0.0942 0.0011 -0.3988 -0.5721 4.5695 25.4950 -91.7072 -40.0233 117.8438 3.4871 2.5126 124.7867 0.0969 0.0622 0.3429 -61.9995 12.8205 97.9514 -2.1345 32.0631 1.1385 -1.7368 -0.3552 -0.8690 2.3714 -9.6839 6.3900 -28.9392 -8.4221 86.8662 2.0961 44.9298 0.5456 -3.7499 -13.7223 1.2103 0.6028 -0.9336 -9.1824 
0.0000 93.1000 0.0000 37.4219 -64.1698 -52.8792 -71.0030 -0.0853 88.0102 84.0133 66.1303 -3.5163 -1.3012 13.9675 5.7669 -141.4465 25.9452 171.6107 -151.3188 64.6232 173.5909 1.2498 -16.4346 -22.1375 -79.2344 44.5550 -134.8298 -3.5932 0.4974 -106.9639 0.1362 -0.4040 -0.1713 -0.2716 4.8533 26.1403 -96.3700 -38.6508 116.8743 3.7947 3.0897 123.5445 0.3887 0.5332 0.8877 -61.3958 14.5220 96.8944 -1.9206 33.6727 0.3863 -1.4748 1.8767 -0.9397 1.9135 -8.5447 4.9220 -29.9461 -10.8322 85.3425 2.2137 43.1909 -0.0121 -4.3326 -15.0594 1.0706 2.1737 -0.5949 -10.9320 
0.0000 93.1000 0.0000 41.8690 -62.0107 -45.8770 -71.0107 -0.0762 88.0079 84.0729 66.6797 -2.2862 -1.9491 14.8944 3.5510 -139.2381 26.0309 169.2165 -153.4935 65.0206 174.9664 -2.8297 -16.0784 -22.0735 -77.2051 43.7127 -136.6810 -0.9805 -0.8930 -107.3155 -0.8285 0.2875 0.1043 -2.6418 5.1495 24.8661 -99.5610 -39.7644 115.8375 6.7747 4.3714 124.0493 0.2734 -0.1699 -0.5872 -60.8365 14.8412 95.5356 -1.7924 33.2169 0.2234 -4.0522 3.0934 1.8378 3.3549 -9.0384 2.0828 -30.9820 -11.9614 83.9195 1.0423 41.8070 -0.3435 -2.7577 -14.8984 -0.0735 -0.9719 -0.5575 -10.6157 
0.0000 93.1000 0.0000 47.3455 -59.1368 -40.6667 -70.9855 0.0546 88.0179 84.1721 66.3539 -0.2733 -0.3155 15.5886 3.8669 -140.3352 26.4666 173.5305 -162.4106 66.3522 -176.6860 2.8501 -15.3966 -22.7017 -75.3682 41.9496 -137.5872 -0.8006 1.0169 -106.8591 1.0310 -0.2681 -0.5857 0.6056 5.2217 24.1912 -102.4970 -39.6724 115.8976 8.8208 4.9500 121.8119 0.1069 0.5088 1.2795 -60.3011 14.8296 95.1285 -2.1464 32.4080 -1.4780 -4.2509 3.7175 -1.2786 4.1476 -11.5999 2.0597 -31.6644 -13.0727 82.2163 1.0311 40.1013 -1.3948 -2.5110 -15.2723 1.8859 3.3327 -1.1298 -12.0547 
0.0000 93.1000 0.0000 49.7311 -56.9433 -37.0769 -71.0111 -0.1827 88.0077 84.7836 67.2117 0.4677 -0.8714 15.9130 3.0286 -136.2959 27.3020 166.9820 -156.7542 66.8367 178.0636 -2.1869 -15.7111 -21.4575 -71.7837 42.0099 -139.7221 0.5665 -1.5462 -106.0278 -0.8404 0.1666 0.2538 -2.4341 5.6132 24.9661 -107.7042 -36.5252 112.9353 9.0664 5.7518 122.3834 0.3233 0.0478 -0.4610 -59.3959 14.2617 94.1464 -1.2515 30.0942 -1.4495 -5.9773 2.3984 1.6355 5.8248 -13.3928 0.8884 -33.4911 -15.2766 79.9377 1.0179 37.7136 -1.1152 -0.8923 -12.4772 -0.3659 -0.7099 -1.6500 -10.3420 
0.0000 93.1000 0.0000 52.2383 -55.5979 -33.9646 -70.9859 -0.3366 88.0166 82.9229 67.5674 0.8290 0.1371 16.4769 4.6961 -135.3450 27.3767 166.1791 -157.4509 67.4955 -179.8531 3.4665 -15.3882 -22.0164 -72.1814 41.0193 -139.5905 0.9520 -0.5011 -105.2312 1.0857 -0.7019 -0.1820 0.7764 5.2012 25.5638 -111.0996 -35.8619 110.6484 7.3211 4.2397 122.1377 0.6887 1.0559 1.7463 -59.3990 14.0592 95.0861 -0.8129 29.5953 -2.9336 -3.6981 0.2831 -1.6947 4.4414 -13.6554 1.7249 -34.6734 -16.8259 78.7353 0.6637 35.4101 -1.8426 -1.2453 -11.5061 1.0717 3.5168 0.0226 -7.8468 
0.0000 93.1000 0.0000 53.0700 -53.7073 -31.9733 -71.0088 0.3464 88.0060 85.9762 68.7622 -1.1403 -0.6164 17.2216 3.6204 -133.2951 27.8514 165.2091 -156.8105 68.5008 178.8621 -1.7358 -15.7930 -21.6317 -70.1050 41.2180 -140.6572 1.2473 -1.1928 -106.2915 -1.4455 0.3896 0.6704 -2.1380 5.1707 26.2663 -113.5291 -33.9083 108.0494 7.0053 5.2176 122.7577 0.4602 -0.0952 -0.7469 -58.1682 14.0689 95.7617 -1.1110 30.2484 -4.2367 -7.1929 -2.4935 1.2189 5.9831 -14.3433 5.4746 -36.4728 -18.0307 79.3022 1.0726 32.3127 -3.1725 -0.1150 -9.0008 -0.9197 -1.6878 -0.2696 -7.3081 
0.0000 93.1000 0.0000 54.9400 -53.2187 -30.1550 -70.9967 0.1257 88.0101 85.0057 69.0397 -0.9293 0.2073 18.1623 4.6681 -134.2980 27.9218 166.1238 -159.7408 68.7313 -176.4830 0.6798 -15.3247 -22.4549 -69.6930 41.0746 -139.5198 0.9941 -0.8025 -105.9194 0.0388 0.0446 0.0754 -0.8091 4.8897 26.5263 -117.2332 -34.1096 105.8795 7.0309 5.4681 122.7197 0.5194 0.3044 0.2852 -57.1541 13.0505 97.1367 -1.5989 30.0653 -6.7095 -5.0344 -4.3007 -0.5564 6.3006 -15.2624 10.1537 -36.4720 -20.2526 79.1534 0.8924 31.1457 -4.9606 -0.2482 -6.9594 -0.0331 0.7156 1.6639 -5.5682 
0.0000 93.1000 0.0000 57.0366 -52.0213 -28.0616 -70.9956 0.7617 88.0086 85.6765 69.7685 -2.0082 0.6521 18.3088 5.1341 -133.3122 28.0125 164.2853 -158.6376 69.4882 -178.1709 0.2162 -15.2299 -21.9553 -69.0372 40.9373 -140.5722 1.2210 -1.0765 -105.3189 -0.0792 0.6332 -0.1424 -1.0043 4.5932 27.3643 -119.9324 -32.5802 103.6919 7.8861 5.6238 123.7294 -0.0217 -0.3164 -0.2464 -55.9272 12.1989 98.0352 -2.2128 32.2823 -6.2507 -3.4730 -6.1386 -0.8748 6.0234 -13.8001 9.3946 -37.9260 -21.2729 79.1948 0.9352 28.8790 -6.9086 -0.0184 -6.4766 0.0757 0.0101 4.7035 -4.1355 
0.0000 93.1000 0.0000 58.1757 -51.3238 -26.0798 -71.0006 0.3186 88.0087 84.0122 70.3070 -1.0852 1.3256 18.6419 4.8481 -132.1810 27.8753 164.2460 -161.4813 69.8297 -174.4058 -0.3175 -15.4762 -21.8171 -68.8188 41.0096 -139.5568 2.2138 -1.0679 -105.2809 -0.2055 0.2403 0.1289 -1.3335 4.6485 27.2400 -123.0677 -32.6174 100.0750 7.8864 5.5776 123.7595 -0.0525 0.0064 -0.0320 -55.0725 11.2830 98.9303 -2.8436 35.5238 -6.9755 -1.9323 -7.7380 -0.7991 5.7719 -14.2278 10.3024 -39.6825 -22.1966 79.6795 -0.1637 27.1301 -7.0161 -0.8778 -6.4624 -0.2697 -0.8854 7.6524 -3.1802 
0.0000 93.1000 0.0000 59.0749 -51.1909 -25.0464 -71.0032 0.0832 88.0113 84.8281 70.8182 -1.8420 1.9220 19.0781 4.4644 -132.3041 27.9891 164.2634 -163.2421 69.7495 -171.4481 -0.2548 -15.2345 -22.0104 -68.2548 41.2512 -139.5064 3.5288 -1.9807 -105.0736 -0.3005 0.0456 0.2020 -1.3305 5.0090 28.2891 -123.9728 -32.1236 97.8085 7.1175 5.3083 123.6190 -0.0777 0.1936 -0.1067 -52.9735 11.0621 98.7575 -2.8158 38.1998 -8.7924 -1.2926 -9.1564 -1.0391 5.8966 -14.9975 13.1100 -39.5492 -22.9266 79.8363 0.2378 26.9216 -5.9629 -2.3398 -5.6127 -0.2101 -0.8563 8.8626 -4.8166 
0.0000 93.1000 0.0000 59.0343 -50.9793 -24.1135 -71.0056 0.0268 88.0087 86.0271 70.9625 -3.0298 2.1103 19.1809 3.8199 -132.2591 27.7831 163.0267 -164.5481 69.1740 -170.3578 -0.3635 -14.9498 -21.8593 -67.0747 41.7607 -138.6499 4.0670 -2.2594 -105.3249 -0.4185 0.0568 0.1872 -1.5498 5.2049 30.0966 -124.9480 -31.7166 95.9195 7.8013 5.2926 125.0141 -0.0986 0.1912 -0.0996 -51.9849 10.9980 99.0946 -2.9991 40.1683 -8.0852 -0.3048 -10.2837 -1.2185 5.5622 -14.8888 13.1081 -38.8834 -22.2150 79.9368 0.0436 27.0463 -4.8855 -4.5264 -4.0568 0.0148 -1.2313 8.5685 -5.2397 
0.0000 93.1000 0.0000 59.0621 -52.1358 -24.9079 -71.0063 0.1572 88.0065 88.7248 71.1840 -4.4712 1.6155 20.0786 3.4958 -132.2533 27.4052 164.4218 -167.6323 69.0049 -167.4018 -0.5301 -14.6843 -21.4523 -67.1973 42.5381 -137.6973 5.8376 -2.1935 -106.1861 -0.3460 0.1695 0.1595 -1.8846 5.5523 32.6654 -124.8669 -30.4402 95.6614 6.9966 4.9550 125.6857 -0.1187 0.0505 -0.3364 -51.2940 10.0698 99.0248 -3.2561 42.3094 -8.1467 0.0703 -12.0873 -1.2770 5.5765 -15.1280 14.3968 -37.8875 -22.0201 80.3478 0.0274 27.0950 -2.8516 -7.3926 -1.5318 0.2763 -0.8363 5.6479 -4.0333 
